<mxfile host="Electron" agent="Mozilla/5.0 (X11; Linux x86_64) AppleWebKit/537.36 (KHTML, like Gecko) draw.io/26.2.2 Chrome/134.0.6998.178 Electron/35.1.2 Safari/537.36" version="26.2.2">
  <diagram name="Page-1" id="sNcDbqjw_pYAusYVt_Mp">
    <mxGraphModel dx="884" dy="1103" grid="1" gridSize="10" guides="1" tooltips="1" connect="1" arrows="1" fold="1" page="1" pageScale="1" pageWidth="850" pageHeight="1100" math="0" shadow="0">
      <root>
        <mxCell id="0" />
        <mxCell id="1" parent="0" />
        <mxCell id="Z3fiLp_MwWBO3-BUcPgy-1" value="Main" style="rounded=1;whiteSpace=wrap;html=1;arcSize=50;" parent="1" vertex="1">
          <mxGeometry x="365" y="190" width="120" height="60" as="geometry" />
        </mxCell>
        <mxCell id="_4FONcBpX4_4FI4BpaMM-5" style="edgeStyle=orthogonalEdgeStyle;rounded=0;orthogonalLoop=1;jettySize=auto;html=1;" parent="1" target="_4FONcBpX4_4FI4BpaMM-3" edge="1">
          <mxGeometry relative="1" as="geometry">
            <mxPoint x="425.5" y="250" as="sourcePoint" />
          </mxGeometry>
        </mxCell>
        <mxCell id="_4FONcBpX4_4FI4BpaMM-7" value="" style="edgeStyle=orthogonalEdgeStyle;rounded=0;orthogonalLoop=1;jettySize=auto;html=1;" parent="1" source="_4FONcBpX4_4FI4BpaMM-3" edge="1">
          <mxGeometry relative="1" as="geometry">
            <mxPoint x="425" y="420" as="targetPoint" />
          </mxGeometry>
        </mxCell>
        <mxCell id="_4FONcBpX4_4FI4BpaMM-3" value="Enter the size of array:&amp;nbsp;" style="shape=parallelogram;perimeter=parallelogramPerimeter;whiteSpace=wrap;html=1;fixedSize=1;" parent="1" vertex="1">
          <mxGeometry x="333" y="300" width="185" height="60" as="geometry" />
        </mxCell>
        <mxCell id="_4FONcBpX4_4FI4BpaMM-21" value="" style="edgeStyle=orthogonalEdgeStyle;rounded=0;orthogonalLoop=1;jettySize=auto;html=1;" parent="1" edge="1">
          <mxGeometry relative="1" as="geometry">
            <mxPoint x="590" y="920" as="sourcePoint" />
          </mxGeometry>
        </mxCell>
        <mxCell id="_4FONcBpX4_4FI4BpaMM-30" style="edgeStyle=orthogonalEdgeStyle;rounded=0;orthogonalLoop=1;jettySize=auto;html=1;" parent="1" edge="1">
          <mxGeometry relative="1" as="geometry">
            <Array as="points">
              <mxPoint x="358" y="890" />
            </Array>
            <mxPoint x="357.99999999999955" y="940" as="targetPoint" />
          </mxGeometry>
        </mxCell>
        <mxCell id="rlwLAzh0CFcVwWv7xNbV-23" style="edgeStyle=orthogonalEdgeStyle;rounded=0;orthogonalLoop=1;jettySize=auto;html=1;" parent="1" source="_4FONcBpX4_4FI4BpaMM-34" target="rlwLAzh0CFcVwWv7xNbV-22" edge="1">
          <mxGeometry relative="1" as="geometry" />
        </mxCell>
        <mxCell id="rlwLAzh0CFcVwWv7xNbV-26" value="" style="edgeStyle=orthogonalEdgeStyle;rounded=0;orthogonalLoop=1;jettySize=auto;html=1;" parent="1" source="_4FONcBpX4_4FI4BpaMM-34" target="rlwLAzh0CFcVwWv7xNbV-25" edge="1">
          <mxGeometry relative="1" as="geometry" />
        </mxCell>
        <mxCell id="_4FONcBpX4_4FI4BpaMM-34" value="repeat len - 1 times for i&amp;nbsp;" style="shape=hexagon;perimeter=hexagonPerimeter2;whiteSpace=wrap;html=1;fixedSize=1;" parent="1" vertex="1">
          <mxGeometry x="324" y="780" width="200" height="80" as="geometry" />
        </mxCell>
        <mxCell id="rlwLAzh0CFcVwWv7xNbV-46" value="" style="edgeStyle=orthogonalEdgeStyle;rounded=0;orthogonalLoop=1;jettySize=auto;html=1;" parent="1" source="rlwLAzh0CFcVwWv7xNbV-22" target="rlwLAzh0CFcVwWv7xNbV-45" edge="1">
          <mxGeometry relative="1" as="geometry" />
        </mxCell>
        <mxCell id="rlwLAzh0CFcVwWv7xNbV-22" value="sorted array" style="shape=parallelogram;perimeter=parallelogramPerimeter;whiteSpace=wrap;html=1;fixedSize=1;" parent="1" vertex="1">
          <mxGeometry x="977" y="920" width="120" height="60" as="geometry" />
        </mxCell>
        <mxCell id="rlwLAzh0CFcVwWv7xNbV-28" value="" style="edgeStyle=orthogonalEdgeStyle;rounded=0;orthogonalLoop=1;jettySize=auto;html=1;" parent="1" source="rlwLAzh0CFcVwWv7xNbV-25" edge="1">
          <mxGeometry relative="1" as="geometry">
            <mxPoint x="423.9999999999998" y="1090" as="targetPoint" />
          </mxGeometry>
        </mxCell>
        <mxCell id="rlwLAzh0CFcVwWv7xNbV-41" style="edgeStyle=orthogonalEdgeStyle;rounded=0;orthogonalLoop=1;jettySize=auto;html=1;exitX=0;exitY=0.5;exitDx=0;exitDy=0;entryX=0;entryY=0.5;entryDx=0;entryDy=0;" parent="1" source="rlwLAzh0CFcVwWv7xNbV-25" target="_4FONcBpX4_4FI4BpaMM-34" edge="1">
          <mxGeometry relative="1" as="geometry">
            <Array as="points">
              <mxPoint x="214" y="960" />
              <mxPoint x="214" y="820" />
            </Array>
          </mxGeometry>
        </mxCell>
        <mxCell id="rlwLAzh0CFcVwWv7xNbV-25" value="repeat len - i - 1 times for j&amp;nbsp;" style="shape=hexagon;perimeter=hexagonPerimeter2;whiteSpace=wrap;html=1;fixedSize=1;" parent="1" vertex="1">
          <mxGeometry x="324" y="920" width="200" height="80" as="geometry" />
        </mxCell>
        <mxCell id="rlwLAzh0CFcVwWv7xNbV-33" value="" style="edgeStyle=orthogonalEdgeStyle;rounded=0;orthogonalLoop=1;jettySize=auto;html=1;" parent="1" source="rlwLAzh0CFcVwWv7xNbV-29" target="rlwLAzh0CFcVwWv7xNbV-32" edge="1">
          <mxGeometry relative="1" as="geometry" />
        </mxCell>
        <mxCell id="rlwLAzh0CFcVwWv7xNbV-29" value="swap(array[j], array[j] + 1)" style="rounded=0;whiteSpace=wrap;html=1;" parent="1" vertex="1">
          <mxGeometry x="512" y="1220" width="240" height="60" as="geometry" />
        </mxCell>
        <mxCell id="rlwLAzh0CFcVwWv7xNbV-31" style="edgeStyle=orthogonalEdgeStyle;rounded=0;orthogonalLoop=1;jettySize=auto;html=1;" parent="1" source="rlwLAzh0CFcVwWv7xNbV-30" target="rlwLAzh0CFcVwWv7xNbV-29" edge="1">
          <mxGeometry relative="1" as="geometry">
            <Array as="points">
              <mxPoint x="632" y="1130" />
            </Array>
          </mxGeometry>
        </mxCell>
        <mxCell id="rlwLAzh0CFcVwWv7xNbV-42" style="edgeStyle=orthogonalEdgeStyle;rounded=0;orthogonalLoop=1;jettySize=auto;html=1;entryX=0.5;entryY=0;entryDx=0;entryDy=0;" parent="1" source="rlwLAzh0CFcVwWv7xNbV-30" target="rlwLAzh0CFcVwWv7xNbV-32" edge="1">
          <mxGeometry relative="1" as="geometry">
            <Array as="points">
              <mxPoint x="424" y="1310" />
              <mxPoint x="632" y="1310" />
            </Array>
          </mxGeometry>
        </mxCell>
        <mxCell id="rlwLAzh0CFcVwWv7xNbV-30" value="array[j] &amp;gt; array[j] + 1" style="rhombus;whiteSpace=wrap;html=1;" parent="1" vertex="1">
          <mxGeometry x="284" y="1090" width="280" height="80" as="geometry" />
        </mxCell>
        <mxCell id="rlwLAzh0CFcVwWv7xNbV-40" style="edgeStyle=orthogonalEdgeStyle;rounded=0;orthogonalLoop=1;jettySize=auto;html=1;exitX=1;exitY=0.5;exitDx=0;exitDy=0;entryX=1;entryY=0.5;entryDx=0;entryDy=0;" parent="1" source="rlwLAzh0CFcVwWv7xNbV-32" target="rlwLAzh0CFcVwWv7xNbV-25" edge="1">
          <mxGeometry relative="1" as="geometry">
            <Array as="points">
              <mxPoint x="644" y="1370" />
              <mxPoint x="644" y="1440" />
              <mxPoint x="834" y="1440" />
              <mxPoint x="834" y="960" />
            </Array>
          </mxGeometry>
        </mxCell>
        <mxCell id="rlwLAzh0CFcVwWv7xNbV-32" value="i = i + 1&lt;div&gt;j = j + 1&lt;/div&gt;" style="rounded=0;whiteSpace=wrap;html=1;" parent="1" vertex="1">
          <mxGeometry x="572" y="1340" width="120" height="60" as="geometry" />
        </mxCell>
        <mxCell id="rlwLAzh0CFcVwWv7xNbV-43" value="True" style="text;html=1;align=center;verticalAlign=middle;whiteSpace=wrap;rounded=0;" parent="1" vertex="1">
          <mxGeometry x="564" y="1090" width="60" height="30" as="geometry" />
        </mxCell>
        <mxCell id="rlwLAzh0CFcVwWv7xNbV-45" value="END" style="rounded=1;whiteSpace=wrap;html=1;arcSize=50;" parent="1" vertex="1">
          <mxGeometry x="977" y="1020" width="120" height="60" as="geometry" />
        </mxCell>
        <mxCell id="CK9Tpo7n7cz1aXcavU4L-12" value="" style="edgeStyle=orthogonalEdgeStyle;rounded=0;orthogonalLoop=1;jettySize=auto;html=1;" parent="1" source="CK9Tpo7n7cz1aXcavU4L-1" target="CK9Tpo7n7cz1aXcavU4L-6" edge="1">
          <mxGeometry relative="1" as="geometry" />
        </mxCell>
        <mxCell id="CK9Tpo7n7cz1aXcavU4L-1" value="len" style="shape=parallelogram;perimeter=parallelogramPerimeter;whiteSpace=wrap;html=1;fixedSize=1;" parent="1" vertex="1">
          <mxGeometry x="365" y="420" width="120" height="60" as="geometry" />
        </mxCell>
        <mxCell id="CK9Tpo7n7cz1aXcavU4L-2" value="" style="shape=singleArrow;whiteSpace=wrap;html=1;arrowWidth=0.4;arrowSize=0.4;" parent="1" vertex="1">
          <mxGeometry x="570" y="315" width="50" height="30" as="geometry" />
        </mxCell>
        <mxCell id="CK9Tpo7n7cz1aXcavU4L-3" value="Output" style="text;html=1;align=center;verticalAlign=middle;resizable=0;points=[];autosize=1;strokeColor=none;fillColor=none;" parent="1" vertex="1">
          <mxGeometry x="640" y="315" width="60" height="30" as="geometry" />
        </mxCell>
        <mxCell id="CK9Tpo7n7cz1aXcavU4L-4" value="" style="shape=singleArrow;whiteSpace=wrap;html=1;arrowWidth=0.4;arrowSize=0.4;" parent="1" vertex="1">
          <mxGeometry x="570" y="435" width="50" height="30" as="geometry" />
        </mxCell>
        <mxCell id="CK9Tpo7n7cz1aXcavU4L-5" value="Input" style="text;html=1;align=center;verticalAlign=middle;resizable=0;points=[];autosize=1;strokeColor=none;fillColor=none;" parent="1" vertex="1">
          <mxGeometry x="645" y="435" width="50" height="30" as="geometry" />
        </mxCell>
        <mxCell id="CK9Tpo7n7cz1aXcavU4L-13" value="" style="edgeStyle=orthogonalEdgeStyle;rounded=0;orthogonalLoop=1;jettySize=auto;html=1;" parent="1" source="CK9Tpo7n7cz1aXcavU4L-6" target="CK9Tpo7n7cz1aXcavU4L-7" edge="1">
          <mxGeometry relative="1" as="geometry" />
        </mxCell>
        <mxCell id="CK9Tpo7n7cz1aXcavU4L-6" value="Enter the elements of array:&amp;nbsp;" style="shape=parallelogram;perimeter=parallelogramPerimeter;whiteSpace=wrap;html=1;fixedSize=1;" parent="1" vertex="1">
          <mxGeometry x="333" y="530" width="185" height="60" as="geometry" />
        </mxCell>
        <mxCell id="CK9Tpo7n7cz1aXcavU4L-15" value="" style="edgeStyle=orthogonalEdgeStyle;rounded=0;orthogonalLoop=1;jettySize=auto;html=1;" parent="1" source="CK9Tpo7n7cz1aXcavU4L-7" target="_4FONcBpX4_4FI4BpaMM-34" edge="1">
          <mxGeometry relative="1" as="geometry" />
        </mxCell>
        <mxCell id="CK9Tpo7n7cz1aXcavU4L-7" value="array" style="shape=parallelogram;perimeter=parallelogramPerimeter;whiteSpace=wrap;html=1;fixedSize=1;" parent="1" vertex="1">
          <mxGeometry x="365" y="650" width="120" height="60" as="geometry" />
        </mxCell>
        <mxCell id="CK9Tpo7n7cz1aXcavU4L-8" value="" style="shape=singleArrow;whiteSpace=wrap;html=1;arrowWidth=0.4;arrowSize=0.4;" parent="1" vertex="1">
          <mxGeometry x="570" y="545" width="50" height="30" as="geometry" />
        </mxCell>
        <mxCell id="CK9Tpo7n7cz1aXcavU4L-9" value="Output" style="text;html=1;align=center;verticalAlign=middle;resizable=0;points=[];autosize=1;strokeColor=none;fillColor=none;" parent="1" vertex="1">
          <mxGeometry x="640" y="545" width="60" height="30" as="geometry" />
        </mxCell>
        <mxCell id="CK9Tpo7n7cz1aXcavU4L-10" value="" style="shape=singleArrow;whiteSpace=wrap;html=1;arrowWidth=0.4;arrowSize=0.4;" parent="1" vertex="1">
          <mxGeometry x="570" y="665" width="50" height="30" as="geometry" />
        </mxCell>
        <mxCell id="CK9Tpo7n7cz1aXcavU4L-11" value="Input" style="text;html=1;align=center;verticalAlign=middle;resizable=0;points=[];autosize=1;strokeColor=none;fillColor=none;" parent="1" vertex="1">
          <mxGeometry x="645" y="665" width="50" height="30" as="geometry" />
        </mxCell>
        <mxCell id="CK9Tpo7n7cz1aXcavU4L-19" value="" style="edgeStyle=orthogonalEdgeStyle;rounded=0;orthogonalLoop=1;jettySize=auto;html=1;" parent="1" source="CK9Tpo7n7cz1aXcavU4L-17" target="CK9Tpo7n7cz1aXcavU4L-18" edge="1">
          <mxGeometry relative="1" as="geometry" />
        </mxCell>
        <mxCell id="CK9Tpo7n7cz1aXcavU4L-17" value="swap" style="rounded=1;whiteSpace=wrap;html=1;arcSize=50;" parent="1" vertex="1">
          <mxGeometry x="1215" y="70" width="120" height="60" as="geometry" />
        </mxCell>
        <mxCell id="CK9Tpo7n7cz1aXcavU4L-21" value="" style="edgeStyle=orthogonalEdgeStyle;rounded=0;orthogonalLoop=1;jettySize=auto;html=1;" parent="1" source="CK9Tpo7n7cz1aXcavU4L-18" target="CK9Tpo7n7cz1aXcavU4L-20" edge="1">
          <mxGeometry relative="1" as="geometry" />
        </mxCell>
        <mxCell id="CK9Tpo7n7cz1aXcavU4L-18" value="elem1" style="shape=parallelogram;perimeter=parallelogramPerimeter;whiteSpace=wrap;html=1;fixedSize=1;" parent="1" vertex="1">
          <mxGeometry x="1215" y="190" width="120" height="60" as="geometry" />
        </mxCell>
        <mxCell id="9gD-bz8BZKdAuMUEYe4y-2" value="" style="edgeStyle=orthogonalEdgeStyle;rounded=0;orthogonalLoop=1;jettySize=auto;html=1;" edge="1" parent="1" source="CK9Tpo7n7cz1aXcavU4L-20" target="9gD-bz8BZKdAuMUEYe4y-1">
          <mxGeometry relative="1" as="geometry" />
        </mxCell>
        <mxCell id="CK9Tpo7n7cz1aXcavU4L-20" value="elem2" style="shape=parallelogram;perimeter=parallelogramPerimeter;whiteSpace=wrap;html=1;fixedSize=1;" parent="1" vertex="1">
          <mxGeometry x="1215" y="320" width="120" height="60" as="geometry" />
        </mxCell>
        <mxCell id="9gD-bz8BZKdAuMUEYe4y-4" value="" style="edgeStyle=orthogonalEdgeStyle;rounded=0;orthogonalLoop=1;jettySize=auto;html=1;" edge="1" parent="1" source="9gD-bz8BZKdAuMUEYe4y-1" target="9gD-bz8BZKdAuMUEYe4y-3">
          <mxGeometry relative="1" as="geometry" />
        </mxCell>
        <mxCell id="9gD-bz8BZKdAuMUEYe4y-1" value="tpm = elem1" style="rounded=0;whiteSpace=wrap;html=1;" vertex="1" parent="1">
          <mxGeometry x="1215" y="450" width="120" height="60" as="geometry" />
        </mxCell>
        <mxCell id="9gD-bz8BZKdAuMUEYe4y-6" value="" style="edgeStyle=orthogonalEdgeStyle;rounded=0;orthogonalLoop=1;jettySize=auto;html=1;" edge="1" parent="1" source="9gD-bz8BZKdAuMUEYe4y-3" target="9gD-bz8BZKdAuMUEYe4y-5">
          <mxGeometry relative="1" as="geometry" />
        </mxCell>
        <mxCell id="9gD-bz8BZKdAuMUEYe4y-3" value="elem1 = elem2" style="rounded=0;whiteSpace=wrap;html=1;" vertex="1" parent="1">
          <mxGeometry x="1215" y="580" width="120" height="60" as="geometry" />
        </mxCell>
        <mxCell id="9gD-bz8BZKdAuMUEYe4y-8" value="" style="edgeStyle=orthogonalEdgeStyle;rounded=0;orthogonalLoop=1;jettySize=auto;html=1;" edge="1" parent="1" source="9gD-bz8BZKdAuMUEYe4y-5" target="9gD-bz8BZKdAuMUEYe4y-7">
          <mxGeometry relative="1" as="geometry" />
        </mxCell>
        <mxCell id="9gD-bz8BZKdAuMUEYe4y-5" value="elem2 = tmp" style="rounded=0;whiteSpace=wrap;html=1;" vertex="1" parent="1">
          <mxGeometry x="1215" y="710" width="120" height="60" as="geometry" />
        </mxCell>
        <mxCell id="9gD-bz8BZKdAuMUEYe4y-11" style="edgeStyle=orthogonalEdgeStyle;rounded=0;orthogonalLoop=1;jettySize=auto;html=1;" edge="1" parent="1" source="9gD-bz8BZKdAuMUEYe4y-7" target="9gD-bz8BZKdAuMUEYe4y-9">
          <mxGeometry relative="1" as="geometry" />
        </mxCell>
        <mxCell id="9gD-bz8BZKdAuMUEYe4y-7" value="elem1, elem2" style="shape=parallelogram;perimeter=parallelogramPerimeter;whiteSpace=wrap;html=1;fixedSize=1;" vertex="1" parent="1">
          <mxGeometry x="1215" y="830" width="120" height="60" as="geometry" />
        </mxCell>
        <mxCell id="9gD-bz8BZKdAuMUEYe4y-9" value="END" style="rounded=1;whiteSpace=wrap;html=1;arcSize=50;" vertex="1" parent="1">
          <mxGeometry x="1215" y="950" width="120" height="60" as="geometry" />
        </mxCell>
      </root>
    </mxGraphModel>
  </diagram>
</mxfile>
